# xmcd
#
# Track frame offsets: 
#        150
#        15015
#        26518
#        41857
#        56583
#        70984
#        83696
#        100548
#        119237
#        138876
#        157591
#        175757
#        191321
#        207346
#        227910
#        239125
#        263251
#
# Disc length: 3727 seconds
#
# Revision: 0
# Processed by: cddbd v1.5.2PL0 Copyright (c) Steve Scherf et al.
# Submitted via: ExactAudioCopy v0.99pb5
#
DISCID=d40e8d11
DTITLE=Various Artist - Nemuritorii anilor '90 vol.2
DYEAR=2011
DGENRE=Oldies
TTITLE0=Meridian - La Ploiesti, la cotitura
TTITLE1=Meridian - Mai vreau o data
TTITLE2=Azur - Surubul
TTITLE3=Generic - Nu pot trai fara tine
TTITLE4=Nazdravanii - Nu ma mai certa, nevasta!
TTITLE5=Trubadurii - Sunt fete frumoase si-n Oltenita
TTITLE6=Azur - Mandro, pentru ochii tai...
TTITLE7=Medalion - Bingo
TTITLE8=Trubadurii - Daca n-ari fi lumea rea
TTITLE9=Radical - Copilul meu, sa nu fii suparat!
TTITLE10=Doinita Flutur si Tomis Junior - La noi, la Galati, sa veniti
TTITLE11=Real B. - Vali, Vali
TTITLE12=Nazdravanii - Doar eu continuu sa te iubesc
TTITLE13=Odeon - Toata viata am luptat
TTITLE14=Doinita Flutur si Tomis Junior - Crizantema, crizantema
TTITLE15=Odeon - Portofele, portofele
TTITLE16=Generic - Iubesc ochii tai caprui
EXTD=
EXTT0=
EXTT1=
EXTT2=
EXTT3=
EXTT4=
EXTT5=
EXTT6=
EXTT7=
EXTT8=
EXTT9=
EXTT10=
EXTT11=
EXTT12=
EXTT13=
EXTT14=
EXTT15=
EXTT16=
PLAYORDER=
